<svg xmlns="http://www.w3.org/2000/svg" xmlns:xlink="http://www.w3.org/1999/xlink"><symbol id="icon-add" viewBox="0 0 20 21"><path d="M10,.5a10,10,0,1,0,7.07,2.93A10,10,0,0,0,10,.5Zm3.12,10.62H10.63v2.5a.63.63,0,0,1-1.26,0v-2.5H6.88a.62.62,0,0,1-.59-.62.63.63,0,0,1,.59-.63H9.37V7.38a.63.63,0,0,1,1.26,0V9.87h2.49a.63.63,0,0,1,.59.63A.62.62,0,0,1,13.12,11.12Z"/></symbol><symbol id="icon-copy" viewBox="0 0 20 26"><path d="M4.58,23.11c-1.19,0-2.08-1.51-2.08-2.8V3.7H2.06A2.15,2.15,0,0,0,0,5.94v17.7a2.15,2.15,0,0,0,2.06,2.24H14.61a2.16,2.16,0,0,0,2.06-2.24v-.53Z"/><path d="M14.1,6.73V0H5.39A2.15,2.15,0,0,0,3.33,2.24v17.7a2.17,2.17,0,0,0,2.06,2.25H17.94A2.15,2.15,0,0,0,20,19.94V6.73Zm1-5.94V5.55h4.17Z"/></symbol><symbol id="icon-play" viewBox="0 0 40 29"><path d="M5.64,0A5.63,5.63,0,0,0,0,5.64V23.08a5.63,5.63,0,0,0,5.64,5.64H34.36A5.63,5.63,0,0,0,40,23.08V5.64A5.63,5.63,0,0,0,34.36,0ZM15.5,7.69l13.22,6.67L15.5,21Z"/></symbol><symbol id="icon-triangle-down" viewBox="0 0 15 12"><path d="M15,0H0L7.5,11.25Z"/></symbol></svg>